# This file uses centimeters as units for non-parametric coordinates.

v 37.599030 46.545513 15.116976
v 38.213762 45.930785 15.116976
v 39.053499 45.705775 15.116976
v 39.053499 45.930785 15.956715
v 39.053499 46.545513 16.571446
v 39.053499 47.385255 16.796452
v 38.213762 47.385255 16.571446
v 37.599030 47.385255 15.956715
v 37.374020 47.385255 15.116976
v 70.127193 45.930785 15.116976
v 70.741925 46.545513 15.116976
v 70.966931 47.385255 15.116976
v 70.741925 47.385255 15.956715
v 70.127193 47.385255 16.571446
v 69.287455 47.385255 16.796452
v 69.287455 46.545513 16.571446
v 69.287455 45.930785 15.956715
v 69.287455 45.705775 15.116976
v 38.213762 79.073678 15.116976
v 37.599030 78.458950 15.116976
v 37.374020 77.619213 15.116976
v 37.599030 77.619213 15.956715
v 38.213762 77.619213 16.571446
v 39.053499 77.619213 16.796452
v 39.053499 78.458950 16.571446
v 39.053499 79.073678 15.956715
v 39.053499 79.298688 15.116976
v 70.741925 78.458950 15.116976
v 70.127193 79.073678 15.116976
v 69.287455 79.298688 15.116976
v 69.287455 79.073678 15.956715
v 69.287455 78.458950 16.571446
v 69.287455 77.619213 16.796452
v 70.127193 77.619213 16.571446
v 70.741925 77.619213 15.956715
v 70.966931 77.619213 15.116976
v 38.213762 77.619213 -16.571446
v 37.599030 77.619213 -15.956715
v 37.374020 77.619213 -15.116976
v 37.599030 78.458950 -15.116976
v 38.213762 79.073678 -15.116976
v 39.053499 79.298688 -15.116976
v 39.053499 79.073678 -15.956715
v 39.053499 78.458950 -16.571446
v 39.053499 77.619213 -16.796452
v 70.741925 77.619213 -15.956715
v 70.127193 77.619213 -16.571446
v 69.287455 77.619213 -16.796452
v 69.287455 78.458950 -16.571446
v 69.287455 79.073678 -15.956715
v 69.287455 79.298688 -15.116976
v 70.127193 79.073678 -15.116976
v 70.741925 78.458950 -15.116976
v 70.966931 77.619213 -15.116976
v 38.213762 45.930785 -15.116976
v 37.599030 46.545513 -15.116976
v 37.374020 47.385255 -15.116976
v 37.599030 47.385255 -15.956715
v 38.213762 47.385255 -16.571446
v 39.053499 47.385255 -16.796452
v 39.053499 46.545513 -16.571446
v 39.053499 45.930785 -15.956715
v 39.053499 45.705775 -15.116976
v 70.741925 46.545513 -15.116976
v 70.127193 45.930785 -15.116976
v 69.287455 45.705775 -15.116976
v 69.287455 45.930785 -15.956715
v 69.287455 46.545513 -16.571446
v 69.287455 47.385255 -16.796452
v 70.127193 47.385255 -16.571446
v 70.741925 47.385255 -15.956715
v 70.966931 47.385255 -15.116976
v 37.725322 46.659580 15.842652
v 38.327820 46.057078 15.842652
v 38.327820 46.659580 16.445148
v 70.013134 46.057078 15.842652
v 70.615628 46.659580 15.842652
v 70.013134 46.659580 16.445148
v 38.327820 78.947374 15.842652
v 37.725322 78.344892 15.842652
v 38.327820 78.344892 16.445148
v 70.615628 78.344892 15.842652
v 70.013134 78.947374 15.842652
v 70.013134 78.344892 16.445148
v 38.327820 78.344892 -16.445148
v 37.725322 78.344892 -15.842652
v 38.327820 78.947374 -15.842652
v 70.615628 78.344892 -15.842652
v 70.013134 78.344892 -16.445148
v 70.013134 78.947374 -15.842652
v 38.327820 46.057078 -15.842652
v 37.725322 46.659580 -15.842652
v 38.327820 46.659580 -16.445148
v 70.615628 46.659580 -15.842652
v 70.013134 46.057078 -15.842652
v 70.013134 46.659580 -16.445148
vt 0.375000 0.994126
vt 0.369126 -0.000000
vt 0.381291 0.993811
vt 0.387582 0.993491
vt 0.387259 -0.000000
vt 0.387259 1.000000
vt 0.387578 0.005454
vt 0.387860 0.010962
vt 0.381494 0.009863
vt 0.375100 0.008708
vt 0.368695 0.007717
vt 0.621018 0.989777
vt 0.637259 -0.000000
vt 0.625000 0.987741
vt 0.637390 0.007717
vt 0.631026 0.008708
vt 0.624655 0.009863
vt 0.618310 0.010962
vt 0.618777 0.005454
vt 0.619280 1.000000
vt 0.619280 -0.000000
vt 0.616782 0.991555
vt 0.381552 0.256875
vt 0.369126 0.250000
vt 0.375000 0.255874
vt 0.368763 0.242583
vt 0.375240 0.241902
vt 0.381717 0.241093
vt 0.388152 0.240326
vt 0.388138 0.246166
vt 0.388106 0.251977
vt 0.388055 0.257794
vt 0.625000 0.255874
vt 0.630874 0.250000
vt 0.618531 0.256875
vt 0.612107 0.257794
vt 0.612140 0.251977
vt 0.612198 0.246166
vt 0.612280 0.240326
vt 0.618645 0.241093
vt 0.625049 0.241902
vt 0.631463 0.242583
vt 0.381521 0.507138
vt 0.125000 0.244126
vt 0.375000 0.505874
vt 0.131356 0.243631
vt 0.375000 0.494126
vt 0.130874 0.250000
vt 0.381522 0.492848
vt 0.387996 0.491666
vt 0.388015 0.497221
vt 0.388015 0.502753
vt 0.387995 0.508308
vt 0.625000 0.505874
vt 0.875000 0.244126
vt 0.618481 0.507137
vt 0.612010 0.508305
vt 0.611991 0.502752
vt 0.611991 0.497220
vt 0.612011 0.491665
vt 0.618482 0.492848
vt 0.869126 0.250000
vt 0.625000 0.494126
vt 0.868649 0.243631
vt 0.381516 0.757173
vt 0.130874 -0.000000
vt 0.375000 0.755874
vt 0.131355 0.006374
vt 0.375000 0.744126
vt 0.125000 0.005874
vt 0.381520 0.742869
vt 0.387993 0.741706
vt 0.388011 0.747270
vt 0.388008 0.752811
vt 0.387986 0.758376
vt 0.625000 0.755720
vt 0.869280 -0.000000
vt 0.618569 0.757013
vt 0.612182 0.758212
vt 0.612122 0.752684
vt 0.612084 0.747178
vt 0.612070 0.741649
vt 0.618512 0.742839
vt 0.875000 0.005874
vt 0.625000 0.744126
vt 0.868805 0.006374
vt 0.375000 0.000000
vt 0.375000 1.000000
vt 0.381539 -0.000000
vt 0.381539 1.000000
vt 0.382206 0.004811
vt 0.625000 0.000000
vt 0.625000 1.000000
vt 0.631539 -0.000000
vt 0.625000 0.993461
vt 0.624153 0.004811
vt 0.382596 0.252109
vt 0.375000 0.250000
vt 0.382648 0.246391
vt 0.625000 0.250000
vt 0.617553 0.252109
vt 0.617598 0.246391
vt 0.382537 0.502617
vt 0.375000 0.500000
vt 0.125000 0.250000
vt 0.382537 0.497368
vt 0.625000 0.500000
vt 0.875000 0.250000
vt 0.617466 0.502616
vt 0.617466 0.497367
vt 0.382533 0.752652
vt 0.375000 0.750000
vt 0.125000 0.000000
vt 0.382535 0.747396
vt 0.625000 0.750000
vt 0.875000 0.000000
vt 0.617545 0.752551
vt 0.617520 0.747339
vn -0.007192 -0.999948 0.007192
vn -0.499913 -0.866059 0.005447
vn -0.499913 -0.866059 -0.005447
vn -0.007192 -0.999948 -0.007192
vn -0.707094 -0.707098 0.005397
vn -0.707094 -0.707099 -0.005397
vn -0.966050 -0.258306 0.005125
vn -0.999948 -0.007192 0.007192
vn -0.999948 -0.007192 -0.007192
vn -0.966050 -0.258306 -0.005125
vn -0.007192 -0.007192 0.999948
vn -0.005126 -0.258302 0.966051
vn 0.005126 -0.258302 0.966051
vn 0.007192 -0.007192 0.999948
vn -0.005397 -0.707098 0.707095
vn -0.005447 -0.866059 0.499913
vn 0.005447 -0.866059 0.499913
vn 0.005397 -0.707098 0.707095
vn 0.007192 -0.999948 0.007192
vn -0.866058 -0.005447 0.499915
vn -0.866058 0.005447 0.499915
vn -0.999948 0.007192 0.007192
vn -0.499913 -0.005447 0.866058
vn -0.499913 0.005447 0.866058
vn -0.007192 0.007192 0.999948
vn 0.999948 -0.007192 0.007192
vn 0.866059 -0.499913 0.005447
vn 0.866059 -0.499913 -0.005447
vn 0.999948 -0.007192 -0.007192
vn 0.499913 -0.866059 0.005447
vn 0.499913 -0.866059 -0.005447
vn 0.007192 -0.999948 -0.007192
vn 0.258303 -0.005126 0.966050
vn 0.258303 0.005126 0.966050
vn 0.007192 0.007192 0.999948
vn 0.707096 -0.005397 0.707097
vn 0.866059 -0.005447 0.499913
vn 0.866059 0.005447 0.499913
vn 0.707096 0.005397 0.707097
vn 0.999948 0.007192 0.007192
vn -0.966049 0.258307 0.005126
vn -0.966049 0.258307 -0.005126
vn -0.999948 0.007192 -0.007192
vn -0.707094 0.707099 0.005397
vn -0.499913 0.866059 0.005447
vn -0.499913 0.866059 -0.005447
vn -0.707094 0.707099 -0.005397
vn -0.007192 0.999948 0.007192
vn -0.007192 0.999948 -0.007192
vn -0.005447 0.866059 0.499913
vn 0.005447 0.866059 0.499913
vn 0.007192 0.999948 0.007192
vn -0.005397 0.707098 0.707095
vn 0.005397 0.707098 0.707095
vn -0.005126 0.258304 0.966050
vn 0.005126 0.258304 0.966050
vn 0.499913 0.866059 0.005447
vn 0.499913 0.866059 -0.005447
vn 0.007192 0.999948 -0.007192
vn 0.866058 0.499914 0.005447
vn 0.866058 0.499914 -0.005447
vn 0.999948 0.007192 -0.007192
vn -0.866058 0.005447 -0.499915
vn -0.866058 -0.005447 -0.499915
vn -0.499913 0.005447 -0.866059
vn -0.499913 -0.005447 -0.866058
vn -0.007192 0.007192 -0.999948
vn -0.007192 -0.007192 -0.999948
vn -0.005126 0.258304 -0.966050
vn 0.005126 0.258304 -0.966050
vn 0.007192 0.007192 -0.999948
vn -0.005397 0.707098 -0.707095
vn -0.005447 0.866059 -0.499913
vn 0.005447 0.866059 -0.499913
vn 0.005397 0.707098 -0.707095
vn 0.258303 0.005126 -0.966050
vn 0.258303 -0.005126 -0.966050
vn 0.007192 -0.007192 -0.999948
vn 0.707096 0.005397 -0.707097
vn 0.866059 0.005447 -0.499913
vn 0.866059 -0.005447 -0.499913
vn 0.707096 -0.005397 -0.707097
vn -0.005447 -0.866059 -0.499913
vn 0.005447 -0.866059 -0.499913
vn -0.005397 -0.707098 -0.707095
vn 0.005397 -0.707098 -0.707095
vn -0.005126 -0.258302 -0.966051
vn 0.005126 -0.258302 -0.966051
vn -0.946104 -0.229005 0.229006
vn -0.707843 -0.499478 0.499480
vn -0.499480 -0.707842 0.499480
vn -0.229005 -0.946104 0.229004
vn -0.499480 -0.499479 0.707843
vn -0.229008 -0.229006 0.946103
vn 0.229006 -0.946104 0.229004
vn 0.499481 -0.707840 0.499481
vn 0.707843 -0.499478 0.499480
vn 0.946104 -0.229006 0.229006
vn 0.499480 -0.499479 0.707843
vn 0.229008 -0.229006 0.946103
vn -0.229012 0.946101 0.229013
vn -0.499477 0.707847 0.499475
vn -0.707840 0.499481 0.499480
vn -0.946104 0.229006 0.229006
vn -0.499481 0.499481 0.707840
vn -0.229007 0.229006 0.946104
vn 0.946104 0.229006 0.229005
vn 0.707840 0.499482 0.499480
vn 0.499477 0.707846 0.499476
vn 0.229013 0.946101 0.229013
vn 0.499481 0.499482 0.707839
vn 0.229007 0.229006 0.946103
vn -0.229007 0.229006 -0.946103
vn -0.499481 0.499481 -0.707840
vn -0.707840 0.499482 -0.499481
vn -0.946104 0.229005 -0.229006
vn -0.499477 0.707847 -0.499475
vn -0.229013 0.946101 -0.229013
vn 0.946104 0.229006 -0.229005
vn 0.707841 0.499481 -0.499480
vn 0.499481 0.499482 -0.707839
vn 0.229007 0.229006 -0.946104
vn 0.499478 0.707846 -0.499476
vn 0.229013 0.946101 -0.229013
vn -0.229005 -0.946104 -0.229004
vn -0.499480 -0.707841 -0.499480
vn -0.707843 -0.499478 -0.499480
vn -0.946104 -0.229006 -0.229006
vn -0.499479 -0.499478 -0.707843
vn -0.229008 -0.229006 -0.946103
vn 0.946104 -0.229006 -0.229006
vn 0.707843 -0.499478 -0.499480
vn 0.499481 -0.707840 -0.499481
vn 0.229006 -0.946104 -0.229004
vn 0.499480 -0.499479 -0.707843
vn 0.229008 -0.229006 -0.946103
s 1
f 3/4/1 2/3/2 55/65/3 63/75/4
f 2/3/2 1/1/5 56/67/6 55/65/3
f 1/2/7 9/11/8 57/68/9 56/66/10
f 6/8/11 5/7/12 16/19/13 15/18/14
f 5/7/15 4/5/16 17/21/17 16/19/18
f 4/6/16 3/4/1 18/22/19 17/20/17
f 9/11/8 8/10/20 22/27/21 21/26/22
f 8/10/20 7/9/23 23/28/24 22/27/21
f 7/9/23 6/8/11 24/29/25 23/28/24
f 12/15/26 11/13/27 64/77/28 72/86/29
f 11/14/27 10/12/30 65/78/31 64/76/28
f 10/12/30 18/22/19 66/79/32 65/78/31
f 15/18/14 14/17/33 34/40/34 33/39/35
f 14/17/36 13/16/37 35/41/38 34/40/39
f 13/16/37 12/15/26 36/42/40 35/41/38
f 21/26/22 20/24/41 40/48/42 39/46/43
f 20/25/44 19/23/45 41/49/46 40/47/47
f 19/23/45 27/32/48 42/50/49 41/49/46
f 27/32/48 26/31/50 31/37/51 30/36/52
f 26/31/50 25/30/53 32/38/54 31/37/51
f 25/30/55 24/29/25 33/39/35 32/38/56
f 30/36/52 29/35/57 52/61/58 51/60/59
f 29/35/57 28/33/60 53/63/61 52/61/58
f 28/34/60 36/42/40 54/64/62 53/62/61
f 39/46/43 38/44/63 58/70/64 57/68/9
f 38/45/63 37/43/65 59/71/66 58/69/64
f 37/43/65 45/53/67 60/72/68 59/71/66
f 45/53/67 44/52/69 49/58/70 48/57/71
f 44/52/72 43/51/73 50/59/74 49/58/75
f 43/51/73 42/50/49 51/60/59 50/59/74
f 48/57/71 47/56/76 70/83/77 69/82/78
f 47/56/79 46/54/80 71/85/81 70/83/82
f 46/55/80 54/64/62 72/86/29 71/84/81
f 63/75/4 62/74/83 67/80/84 66/79/32
f 62/74/83 61/73/85 68/81/86 67/80/84
f 61/73/87 60/72/68 69/82/78 68/81/88
f 6/8/11 15/18/14 33/39/35 24/29/25
f 27/32/48 30/36/52 51/60/59 42/50/49
f 45/53/67 48/57/71 69/82/78 60/72/68
f 63/75/4 66/79/32 18/22/19 3/4/1
f 12/15/26 72/86/29 54/64/62 36/42/40
f 57/68/9 9/11/8 21/26/22 39/46/43
f 8/10/20 9/11/8 1/2/7 73/87/89
f 73/88/90 1/1/5 2/3/2 74/90/91
f 2/3/2 3/4/1 4/6/16 74/90/92
f 74/89/91 4/5/16 5/7/15 75/91/93
f 5/7/12 6/8/11 7/9/23 75/91/94
f 75/91/93 7/9/23 8/10/20 73/87/90
f 73/87/90 74/89/91 75/91/93
f 17/20/17 18/22/19 10/12/30 76/93/95
f 76/93/96 10/12/30 11/14/27 77/95/97
f 11/13/27 12/15/26 13/16/37 77/94/98
f 77/94/97 13/16/37 14/17/36 78/96/99
f 14/17/33 15/18/14 16/19/13 78/96/100
f 78/96/99 16/19/18 17/21/17 76/92/96
f 76/92/96 77/94/97 78/96/99
f 26/31/50 27/32/48 19/23/45 79/97/101
f 79/97/102 19/23/45 20/25/44 80/98/103
f 20/24/41 21/26/22 22/27/21 80/98/104
f 80/98/103 22/27/21 23/28/24 81/99/105
f 23/28/24 24/29/25 25/30/55 81/99/106
f 81/99/105 25/30/53 26/31/50 79/97/102
f 79/97/102 80/98/103 81/99/105
f 35/41/38 36/42/40 28/34/60 82/100/107
f 82/100/108 28/33/60 29/35/57 83/101/109
f 29/35/57 30/36/52 31/37/51 83/101/110
f 83/101/109 31/37/51 32/38/54 84/102/111
f 32/38/56 33/39/35 34/40/34 84/102/112
f 84/102/111 34/40/39 35/41/38 82/100/108
f 82/100/108 83/101/109 84/102/111
f 44/52/69 45/53/67 37/43/65 85/103/113
f 85/103/114 37/43/65 38/45/63 86/104/115
f 38/44/63 39/46/43 40/48/42 86/105/116
f 86/104/115 40/47/47 41/49/46 87/106/117
f 41/49/46 42/50/49 43/51/73 87/106/118
f 87/106/117 43/51/73 44/52/72 85/103/114
f 85/103/114 86/104/115 87/106/117
f 53/62/61 54/64/62 46/55/80 88/108/119
f 88/107/120 46/54/80 47/56/79 89/109/121
f 47/56/76 48/57/71 49/58/70 89/109/122
f 89/109/121 49/58/75 50/59/74 90/110/123
f 50/59/74 51/60/59 52/61/58 90/110/124
f 90/110/123 52/61/58 53/63/61 88/107/120
f 88/107/120 89/109/121 90/110/123
f 62/74/83 63/75/4 55/65/3 91/111/125
f 91/111/126 55/65/3 56/67/6 92/112/127
f 56/66/10 57/68/9 58/70/64 92/113/128
f 92/112/127 58/69/64 59/71/66 93/114/129
f 59/71/66 60/72/68 61/73/87 93/114/130
f 93/114/129 61/73/85 62/74/83 91/111/126
f 91/111/126 92/112/127 93/114/129
f 71/84/81 72/86/29 64/77/28 94/116/131
f 94/115/132 64/76/28 65/78/31 95/117/133
f 65/78/31 66/79/32 67/80/84 95/117/134
f 95/117/133 67/80/84 68/81/86 96/118/135
f 68/81/88 69/82/78 70/83/77 96/118/136
f 96/118/135 70/83/82 71/85/81 94/115/132
f 94/115/132 95/117/133 96/118/135
